<?xml version="1.0" encoding="UTF-8"?>
<svg width="127px" height="41px" viewBox="0 0 127 41" version="1.1" xmlns="http://www.w3.org/2000/svg" xmlns:xlink="http://www.w3.org/1999/xlink">
    <!-- Generator: Sketch 59 (86127) - https://sketch.com -->
    <title>Group 25</title>
    <desc>Created with Sketch.</desc>
    <defs>
        <polygon id="path-1" points="0.0751571848 0.138396481 9.36932258 0.138396481 9.36932258 15.9940299 0.0751571848 15.9940299"></polygon>
        <polygon id="path-3" points="0.0691237537 0.171319648 38.4760094 0.171319648 38.4760094 40.2228739 0.0691237537 40.2228739"></polygon>
        <polygon id="path-5" points="0 0.267966276 14.892817 0.267966276 14.892817 16.5802038 0 16.5802038"></polygon>
    </defs>
    <g id="Page-1" stroke="none" stroke-width="1" fill="none" fill-rule="evenodd">
        <g id="Home-Copy" transform="translate(-60.000000, -37.000000)">
            <g id="Group-25" transform="translate(60.000000, 37.000000)">
                <path d="M89.5851669,16.9791179 L91.548639,16.9791179 L91.548639,19.8576604 L94.8629293,19.8576604 L94.8629293,21.6959947 L91.548639,21.6959947 L91.548639,26.3465783 C91.548639,27.217329 91.7627886,27.8538188 92.1899704,28.2560475 C92.6178971,28.6586487 93.3005686,28.859763 94.2376126,28.859763 L94.8629293,28.859763 L94.8629293,30.720071 L94.2152666,30.720071 C92.6681757,30.720071 91.5099059,30.3841355 90.7397123,29.7122645 C89.9698912,29.0403935 89.5851669,28.0288628 89.5851669,26.678417 L89.5851669,16.9791179 Z" id="Fill-1" fill="#BBD147"></path>
                <path d="M116.040012,21.7180056 L115.192352,21.7180056 C113.815836,21.7180056 112.718645,22.0450026 111.900408,22.6978795 C111.081798,23.3511287 110.673238,24.2203897 110.673238,25.3056625 C110.673238,26.3831141 111.084032,27.2490232 111.905622,27.9019 C112.727584,28.5551493 113.823284,28.8821463 115.192352,28.8821463 L116.040012,28.8821463 L116.040012,30.7201082 L115.057903,30.7201082 C113.101135,30.7201082 111.541754,30.2236537 110.377152,29.2307446 C109.213296,28.2378355 108.630809,26.9186742 108.630809,25.2725158 C108.630809,24.3864953 108.839372,23.5596918 109.256126,22.7924777 C109.672507,22.0241463 110.263933,21.3787182 111.029657,20.8539587 C111.565589,20.4997739 112.135041,20.245029 112.737267,20.0900965 C113.339493,19.9351639 114.113038,19.8576977 115.057903,19.8576977 L116.040012,19.8576977 L116.040012,21.7180056 Z" id="Fill-3" fill="#BBD147"></path>
                <g id="Group-7" transform="translate(117.316716, 14.726041)">
                    <mask id="mask-2" fill="white">
                        <use xlink:href="#path-1"></use>
                    </mask>
                    <g id="Clip-6"></g>
                    <path d="M0.0751571848,15.9940299 L0.0751571848,0.138396481 L2.03825689,0.138396481 L2.03825689,6.17257243 C2.49262639,5.74464575 2.9700868,5.42695953 3.47250029,5.22025865 C3.97454135,5.01393021 4.5082393,4.91002111 5.07396657,4.91002111 C6.43446804,4.91002111 7.49069091,5.35731437 8.24263519,6.25041114 C8.99346217,7.14313548 9.36962053,8.40159003 9.36962053,10.0261472 L9.36962053,15.9940299 L7.40614839,15.9940299 L7.40614839,9.71628211 C7.40614839,8.7855695 7.18008094,8.06975132 6.73055308,7.56771026 C6.28028035,7.06566921 5.63857654,6.81502111 4.80581408,6.81502111 C3.98794897,6.81502111 3.32203695,7.11780997 2.80882287,7.72264282 C2.2956088,8.32784809 2.03825689,9.12895367 2.03825689,10.1255871 L2.03825689,15.9940299 L0.0751571848,15.9940299 Z" id="Fill-5" fill="#BBD147" mask="url(#mask-2)"></path>
                </g>
                <path d="M101.769309,21.647839 C103.349174,21.647839 104.685467,22.725663 105.126801,24.2079504 L98.411071,24.2079504 C98.8527777,22.725663 100.189071,21.647839 101.769309,21.647839 M101.769309,19.898144 C98.6944933,19.898144 96.2021648,22.3219446 96.2021648,25.3111 C96.2021648,28.3002554 98.6944933,30.7229387 101.769309,30.7229387 C104.060895,30.7229387 106.028836,29.3762173 106.882455,27.452968 L104.576716,27.452968 C103.935012,28.3311674 102.916405,28.8998742 101.769309,28.8998742 C100.012537,28.8998742 98.5574375,27.5680501 98.2982235,25.830273 L105.240021,25.830273 L106.939438,25.830273 L107.29176,25.830273 L107.309637,25.830273 C107.337197,25.610537 107.336086,25.5382848 107.336086,25.3111 C107.336086,22.3219446 104.843379,19.898144 101.769309,19.898144" id="Fill-8" fill="#BBD147"></path>
                <g id="Group-16" transform="translate(46.181818, 10.629267)" fill="#FEFEFE">
                    <path d="M1.97732669,1.9004563 C0.74196305,3.10751496 0.115156598,4.92275836 0.115156598,7.29628035 L0.115156598,20.1035413 L4.18921232,20.1035413 L4.18921232,13.2101601 L10.9436757,13.2101601 L10.9436757,9.32120411 L4.18921232,9.32120411 L4.18921232,6.92421877 C4.18921232,5.92981994 4.42570792,5.20692551 4.91173431,4.71494018 C5.39403636,4.22705161 6.09570205,3.98943871 7.05583695,3.98943871 L10.9436757,3.98943871 L10.9436757,0.0874475073 L7.48264633,0.0874475073 C5.06182522,0.0874475073 3.20971085,0.697866862 1.97732669,1.9004563" id="Fill-10"></path>
                    <path d="M30.5961994,1.89066129 C29.3600909,3.09771994 28.7336569,4.91333578 28.7336569,7.28648534 L28.7336569,20.0937463 L32.8077126,20.0937463 L32.8077126,13.2003651 L39.562176,13.2003651 L39.562176,9.31140909 L32.8077126,9.31140909 L32.8077126,6.91442375 C32.8077126,5.92002493 33.0442082,5.19750293 33.530607,4.70514516 C34.0125367,4.21762903 34.7142023,3.9796437 35.6747097,3.9796437 L39.562176,3.9796437 L39.562176,0.0780249267 L36.1007742,0.0780249267 C33.6806979,0.0780249267 31.8282111,0.688071848 30.5961994,1.89066129" id="Fill-12"></path>
                    <path d="M16.9681683,7.36912845 C16.9681683,6.29279413 17.2288721,5.44885865 17.7439484,4.86004047 C18.2363062,4.29692023 18.902963,4.0239261 19.7830246,4.0239261 C20.5818956,4.0239261 21.2340276,4.28611965 21.7777812,4.82540411 C22.32079,5.36431613 22.5848457,6.01570323 22.5848457,6.81718123 C22.5848457,7.68309032 22.3137138,8.35235425 21.7554352,8.86407859 C21.1792798,9.3918176 20.4023824,9.64954194 19.3819132,9.64954194 L16.9681683,9.64954194 L16.9681683,7.36912845 Z M19.834793,0.0832017595 C18.5755935,0.0832017595 17.4150891,0.375562463 16.3849367,0.952462757 C15.3518047,1.53010792 14.5078692,2.36175308 13.8739865,3.42579707 C13.5101185,4.04068563 13.2464352,4.74160645 13.0911302,5.50733079 C12.9410393,6.24698475 12.8680422,7.22574135 12.8680422,8.49946569 L12.8680422,20.0579554 L16.9681683,20.0579554 L16.9681683,13.6021842 L19.7055584,13.6021842 C21.7107431,13.6021842 23.4023384,12.9575009 24.7326727,11.6860111 C26.0708282,10.4059554 26.7505202,8.78512258 26.7505202,6.86857713 C26.7505202,5.00715191 26.0671038,3.39339531 24.7207548,2.07125455 C23.376268,0.752465689 21.7327167,0.0832017595 19.834793,0.0832017595 L19.834793,0.0832017595 Z" id="Fill-14"></path>
                </g>
                <g id="Group-19" transform="translate(2.234604, 0.201114)">
                    <mask id="mask-4" fill="white">
                        <use xlink:href="#path-3"></use>
                    </mask>
                    <g id="Clip-18"></g>
                    <path d="M20.4684522,19.2890282 L21.454285,11.1118669 C21.7026985,9.48433021 22.5038041,7.98714545 23.7071384,6.89479648 C24.9696897,5.75142405 26.5901501,5.12201056 28.2702,5.12201056 C28.278766,5.12201056 28.287332,5.12275543 28.2955255,5.12275543 C31.8113026,5.12052082 35.2227982,5.55105455 38.4760094,6.36035367 C38.068939,5.68624809 37.5955754,5.04454428 37.0574082,4.44380821 C34.6265314,1.72876422 31.1211824,0.171245161 27.4422792,0.171245161 C24.3238891,0.171245161 21.3168569,1.29078182 18.9749918,3.32240938 C17.8360886,4.3112217 16.8949478,5.47358827 16.1783848,6.7767349 C15.4864023,8.03556188 15.0197425,9.39457361 14.7929302,10.8161543 L13.7229273,19.3247818 L12.9646516,25.3693859 L12.1702499,31.9651924 C11.9683906,33.2780223 11.3229625,34.4858258 10.352027,35.3662598 C9.33453724,36.2884065 8.02692141,36.7967789 6.67163402,36.7967789 C6.55394487,36.7967789 6.43625572,36.7911924 6.3200563,36.7833713 C4.1927132,36.7636323 2.10559296,36.5859812 0.0691237537,36.2619636 C0.184205865,36.403861 0.302267449,36.5438962 0.425170674,36.680207 C2.44785982,38.9315707 5.36327331,40.2231718 8.42505337,40.2231718 C11.0190563,40.2231718 13.5203232,39.2950663 15.4685255,37.6098023 C17.3265988,36.0023771 18.5627073,33.7945883 18.9478041,31.394251 L19.7086868,25.3649167 L20.4684522,19.2890282 Z" id="Fill-17" fill="#BBD147" mask="url(#mask-4)"></path>
                </g>
                <path d="M40.4489786,7.50588622 C38.4531047,7.00943167 36.4129111,6.66679238 34.3518613,6.47610616 C34.8419845,6.81315894 35.2930021,7.21464282 35.691134,7.67832317 C38.2072982,10.6134757 37.9331868,15.1054023 35.0781076,17.6930739 C33.8729111,18.784678 32.3269375,19.4126018 30.7250988,19.4625079 L30.7247264,19.4625079 L23.778832,19.4610182 L23.764307,19.5612029 L23.0186941,25.5201472 L30.0819053,25.5223818 C31.5422191,25.478807 32.9693862,25.2099097 34.3257909,24.6922264 C35.7291223,24.1551765 37.0181164,23.3831208 38.158137,22.3939361 C40.7249522,20.1664082 42.2567733,17.0882411 42.4720402,13.727024 C42.605744,11.6335724 42.2146883,9.58816481 41.3573452,7.73158123 L40.4489786,7.50588622 Z" id="Fill-20" fill="#FEFEFE"></path>
                <g id="Group-24" transform="translate(0.000000, 19.195249)">
                    <mask id="mask-6" fill="white">
                        <use xlink:href="#path-5"></use>
                    </mask>
                    <g id="Clip-23"></g>
                    <path d="M2.48145337,16.2126114 C3.48888739,16.3727581 4.50972903,16.4949164 5.53541232,16.5802038 C5.24565865,16.3541364 4.97415425,16.0997639 4.72983754,15.8148519 C2.69969971,13.4476613 2.92204282,9.82425073 5.22405748,7.73750293 C6.1964827,6.85744135 7.45046804,6.38631232 8.74281408,6.34608944 L14.1315619,6.34608944 L14.1464592,6.21089589 L14.892817,0.270573314 L10.3297554,0.267966276 C7.85679355,0.341335777 5.47023636,1.26795161 3.61067331,2.87649413 C1.47513666,4.72376686 0.200295015,7.27642962 0.0215266862,10.0644707 C-0.115156598,12.1918138 0.401409384,14.2618021 1.48966158,16.054327 L2.48145337,16.2126114 Z" id="Fill-22" fill="#FEFEFE" mask="url(#mask-6)"></path>
                </g>
            </g>
        </g>
    </g>
</svg>